<?xml version="1.0" encoding="iso-8859-1"?>
<!-- Generator: Adobe Illustrator 19.0.0, SVG Export Plug-In . SVG Version: 6.00 Build 0)  -->
<svg version="1.1" id="Layer_1" xmlns="http://www.w3.org/2000/svg" xmlns:xlink="http://www.w3.org/1999/xlink" x="0px" y="0px"
	 viewBox="0 0 512 512" style="enable-background:new 0 0 512 512;" xml:space="preserve">
<g>
	<g>
		<path d="M284.369,411.797l-59.429-23.771v-22.108c33.173-14.995,56.929-47.269,59.709-85.28h1.342
			c13.585,0,24.638-11.052,24.638-24.638c0-10.972-7.208-20.291-17.138-23.471v-36.512c0-20.23-6.374-39.474-18.434-55.649
			c-11.763-15.779-27.838-27.241-46.498-33.172L190.186,4.867C189.088,1.939,186.29,0,183.164,0s-5.925,1.939-7.022,4.867
			l-38.374,102.331c-18.394,5.849-34.895,17.613-46.49,33.16c-12.064,16.178-18.441,35.425-18.441,55.66v36.512
			c-9.93,3.18-17.138,12.499-17.138,23.471c0,13.585,11.053,24.638,24.638,24.638h1.342c2.78,38.011,26.536,70.285,59.709,85.28
			v22.108l-59.429,23.771c-15.953,6.382-26.261,21.607-26.261,38.788V504.5c0,4.142,3.358,7.5,7.5,7.5c4.142,0,7.5-3.358,7.5-7.5
			v-53.915c0-11.012,6.607-20.771,16.832-24.861l53.937-21.575c1.287,21.886,19.493,39.299,41.697,39.299
			c22.203,0,40.409-17.413,41.696-39.299l53.938,21.575c10.225,4.09,16.832,13.849,16.832,24.861V504.5c0,4.142,3.358,7.5,7.5,7.5
			c4.142,0,7.5-3.358,7.5-7.5v-53.915C310.63,433.404,300.322,418.179,284.369,411.797z M223.755,137.104h-34.884l28.623-16.697
			L223.755,137.104z M183.164,28.86l7.898,21.063l-20.216,11.784L183.164,28.86z M162.514,83.925l33.891-19.754l5.198,13.862
			l-47.207,27.539L162.514,83.925z M146.061,127.801l60.885-35.519l5.204,13.877l-53.049,30.945h-16.529L146.061,127.801z
			 M209.939,401.672c0,14.764-12.012,26.776-26.776,26.776c-14.764,0-26.776-12.012-26.776-26.776v-30.351
			c8.535,2.33,17.512,3.575,26.776,3.575c9.264,0,18.241-1.246,26.776-3.575V401.672z M183.166,359.896
			c-47.839,0-86.761-38.919-86.761-86.758c0-4.142-3.358-7.5-7.5-7.5h-8.569c-5.314,0-9.638-4.323-9.638-9.638
			s4.324-9.638,9.638-9.638H93.69c10.622,0,20.015-6.77,23.374-16.847l2.99-8.97c8.2-0.265,24.879-1.171,44.97-4.262
			c38.046-5.853,68.613-16.338,90.851-31.164c3.447-2.298,4.378-6.954,2.08-10.401c-2.298-3.447-6.955-4.377-10.4-2.08
			c-48.885,32.59-132.11,33.016-132.943,33.016c-3.228,0-6.094,2.066-7.115,5.128l-4.663,13.989c-1.314,3.942-4.988,6.59-9.143,6.59
			h-5.854v-35.345c0-29.976,16.756-56.627,42.783-69.759l-5.892,15.712c-0.864,2.303-0.543,4.884,0.858,6.905
			c1.401,2.022,3.705,3.228,6.165,3.228h102.828c2.46,0,4.763-1.206,6.165-3.228c1.401-2.022,1.722-4.602,0.858-6.906l-5.892-15.712
			c26.026,13.133,42.783,39.786,42.783,69.759v35.345h-5.854c-4.155,0-7.829-2.648-9.143-6.59l-4.663-13.988
			c-1.31-3.929-5.555-6.053-9.487-4.743c-3.929,1.31-6.053,5.557-4.743,9.487l4.663,13.988
			c3.358,10.077,12.751,16.847,23.374,16.847h13.354c5.314,0,9.638,4.323,9.638,9.638s-4.324,9.638-9.638,9.638h-8.569
			c-4.142,0-7.5,3.358-7.5,7.5C269.925,320.976,231.005,359.896,183.166,359.896z"/>
	</g>
</g>
<g>
	<g>
		<path d="M140.319,248.5c-4.142,0-7.5,3.358-7.5,7.5v8.569c0,4.142,3.358,7.5,7.5,7.5c4.142,0,7.5-3.358,7.5-7.5V256
			C147.819,251.858,144.461,248.5,140.319,248.5z"/>
	</g>
</g>
<g>
	<g>
		<path d="M226.009,248.5c-4.142,0-7.5,3.358-7.5,7.5v8.569c0,4.142,3.358,7.5,7.5,7.5c4.142,0,7.5-3.358,7.5-7.5V256
			C233.509,251.858,230.151,248.5,226.009,248.5z"/>
	</g>
</g>
<g>
	<g>
		<path d="M214.665,302.652c-2.63-3.2-7.356-3.662-10.556-1.031c-5.306,4.361-12.94,6.863-20.945,6.863s-15.638-2.501-20.944-6.863
			c-3.199-2.63-7.926-2.168-10.556,1.031c-2.63,3.2-2.168,7.926,1.032,10.556c8.061,6.626,18.882,10.275,30.469,10.275
			c11.586,0,22.407-3.649,30.468-10.275C216.833,310.578,217.295,305.852,214.665,302.652z"/>
	</g>
</g>
<g>
	<g>
		<path d="M120.852,474.633l-17.138-25.707c-2.297-3.447-6.955-4.378-10.4-2.08c-3.447,2.297-4.378,6.954-2.08,10.4l15.878,23.817
			V504.5c0,4.142,3.358,7.5,7.5,7.5c4.142,0,7.5-3.358,7.5-7.5v-25.707C122.112,477.312,121.674,475.865,120.852,474.633z"/>
	</g>
</g>
<g>
	<g>
		<path d="M273.014,446.846c-3.445-2.297-8.103-1.367-10.4,2.08l-17.138,25.707c-0.821,1.232-1.26,2.679-1.26,4.16V504.5
			c0,4.142,3.358,7.5,7.5,7.5c4.142,0,7.5-3.358,7.5-7.5v-23.436l15.878-23.817C277.392,453.8,276.46,449.144,273.014,446.846z"/>
	</g>
</g>
<g>
	<g>
		<path d="M371.681,0c-46.66,0-84.621,37.961-84.621,84.621c0,34.751,8.394,68.062,23.635,93.796
			c12.001,20.264,27.063,33.748,43.539,39.328l-6.967,27.867c-0.561,2.24-0.057,4.614,1.364,6.435
			c1.421,1.821,3.602,2.885,5.912,2.885h9.638v139.241h-9.638c-13.585,0-24.638,11.053-24.638,24.638v34.276
			c0,10.971,7.209,20.286,17.138,23.467V504.5c0,4.142,3.358,7.5,7.5,7.5c4.142,0,7.5-3.358,7.5-7.5v-26.776h9.638
			c3.418,0,6.676-0.701,9.638-1.965V504.5c0,4.142,3.358,7.5,7.5,7.5c4.142,0,7.5-3.358,7.5-7.5v-51.414v-51.414
			c0-4.142-3.358-7.5-7.5-7.5h-9.638V254.931h9.638c2.31,0,4.49-1.064,5.912-2.884c1.421-1.821,1.925-4.194,1.364-6.435
			l-6.967-27.867c16.476-5.58,31.538-19.064,43.539-39.328c15.242-25.735,23.635-59.045,23.635-93.796
			C456.302,37.961,418.341,0,371.681,0z M381.319,409.172v43.914c0,5.314-4.323,9.638-9.638,9.638h-17.138
			c-5.314,0-9.638-4.323-9.638-9.638V418.81c0-5.314,4.323-9.638,9.638-9.638H381.319z M364.149,239.931l4.819-19.276h5.426
			l4.819,19.276H364.149z M419.76,170.773c-13.322,22.494-30.397,34.882-48.079,34.882c-17.683,0-34.757-12.388-48.08-34.882
			c-13.689-23.115-21.541-54.516-21.541-86.152C302.06,46.232,333.291,15,371.681,15s69.621,31.232,69.621,69.621
			C441.302,116.257,433.45,147.658,419.76,170.773z"/>
	</g>
</g>
<g>
	<g>
		<path d="M421.013,74.547c-4.759-23.335-25.506-40.271-49.332-40.271c-4.142,0-7.5,3.358-7.5,7.5c0,4.142,3.358,7.5,7.5,7.5
			c16.728,0,31.293,11.889,34.634,28.269c0.725,3.553,3.85,6.003,7.341,6.003c0.497,0,1.001-0.05,1.506-0.153
			C419.221,82.567,421.84,78.606,421.013,74.547z"/>
	</g>
</g>
<g>
</g>
<g>
</g>
<g>
</g>
<g>
</g>
<g>
</g>
<g>
</g>
<g>
</g>
<g>
</g>
<g>
</g>
<g>
</g>
<g>
</g>
<g>
</g>
<g>
</g>
<g>
</g>
<g>
</g>
</svg>
